<svg height="512" viewBox="0 0 31 56" width="512" xmlns="http://www.w3.org/2000/svg"><path id="Shape" d="m27.92 2.75-4.6 2.87-2.15-3.44zm-19.25-2.75h8.78l4.16 6.66-20.61 11.99zm4.87 47.48-2.15-11.48 7.18 4.31zm-2-13.74 2.48-3v4.47zm-2.29-.38c-.17866028.2333724-.25449241.5294788-.21.82l2.9 15.49-5.32 5.33-6.5-33.45 7.51-4.39 6.16 10.77zm20.09 22.64h-6l3.43-2.28zm1.66-7.54-11.3 7.54h-11.29c4-4 5.32-5.3 5.41-5.43l7-10c.1583117-.2278668.2148333-.5112655.1560493-.7824303s-.2275885-.5057165-.4660493-.6475697l-4.51-2.71c0-9 0-8.55-.11-8.86s1 1.8-6.53-11.46l9.77-5.7 11.87 11.03z"/></svg>