<?xml version="1.0" encoding="UTF-8" standalone="no"?>
<!-- Created with Inkscape (http://www.inkscape.org/) -->

<svg
   xmlns:dc="http://purl.org/dc/elements/1.1/"
   xmlns:cc="http://creativecommons.org/ns#"
   xmlns:rdf="http://www.w3.org/1999/02/22-rdf-syntax-ns#"
   xmlns:svg="http://www.w3.org/2000/svg"
   xmlns="http://www.w3.org/2000/svg"
   xmlns:sodipodi="http://sodipodi.sourceforge.net/DTD/sodipodi-0.dtd"
   xmlns:inkscape="http://www.inkscape.org/namespaces/inkscape"
   width="200mm"
   height="200mm"
   viewBox="0 0 200 200"
   version="1.1"
   id="svg8"
   inkscape:version="0.92.4 (5da689c313, 2019-01-14)"
   sodipodi:docname="material-tux-dark.svg">
  <defs
     id="defs2" />
  <sodipodi:namedview
     id="base"
     pagecolor="#ffffff"
     bordercolor="#666666"
     borderopacity="1.0"
     inkscape:pageopacity="0.0"
     inkscape:pageshadow="2"
     inkscape:zoom="0.90994277"
     inkscape:cx="350.2857"
     inkscape:cy="319.39102"
     inkscape:document-units="mm"
     inkscape:current-layer="g4606"
     showgrid="false"
     showguides="true"
     inkscape:window-width="1868"
     inkscape:window-height="1044"
     inkscape:window-x="48"
     inkscape:window-y="32"
     inkscape:window-maximized="1"
     inkscape:guide-bbox="true" />
  <metadata
     id="metadata5">
    <rdf:RDF>
      <cc:Work
         rdf:about="">
        <dc:format>image/svg+xml</dc:format>
        <dc:type
           rdf:resource="http://purl.org/dc/dcmitype/StillImage" />
        <dc:title></dc:title>
      </cc:Work>
    </rdf:RDF>
  </metadata>
  <g
     inkscape:label="Layer 1"
     inkscape:groupmode="layer"
     id="layer1"
     transform="translate(0,-97)">
    <g
       id="g4606"
       transform="translate(1.2336293,-3.4952828)">
      <g
         id="g4642"
         transform="matrix(1.3176347,0,0,1.3523622,-37.141867,43.425428)">
        <path
           style="fill:#ffffff;fill-opacity:1;stroke:none;stroke-width:4.86499977;stroke-linecap:butt;stroke-linejoin:miter;stroke-miterlimit:4;stroke-dasharray:none;stroke-opacity:1"
           d="m 163.04201,108.75337 c 0,0 -17.58331,1.96055 -23.56879,11.16478 -5.6881,8.74692 -3.39329,19.56051 0.87173,28.8317 2.48362,5.39881 8.77998,15.53118 11.41249,19.17127 -48.42786,34.63103 -89.233298,10.58721 -99.552874,-1.93906 11.212385,-56.87245 29.101422,-71.192421 36.430851,-66.474627"
           id="path4549"
           inkscape:connector-curvature="0"
           sodipodi:nodetypes="cssccc" />
        <path
           style="fill:#ffd36e;fill-opacity:1;stroke:none;stroke-width:0.26458332px;stroke-linecap:butt;stroke-linejoin:miter;stroke-opacity:1"
           d="m 83.564859,183.27638 c -7.559522,-19.65476 -9.944246,-49.61997 3.936629,-55.04276 7.36043,-2.87547 11.575771,11.18676 48.380942,-5.29165 l 5.29167,-7.74852 -60.476186,-18.709819 c 0,0 -23.056545,35.340769 -23.056545,36.096729 0,0.75595 11.528274,45.54613 11.528274,45.54613 z"
           id="path4568"
           inkscape:connector-curvature="0"
           sodipodi:nodetypes="cscccscc" />
        <path
           style="fill:#084652;fill-opacity:1;stroke:#fafafa;stroke-width:4.80200005;stroke-linecap:round;stroke-linejoin:round;stroke-miterlimit:4;stroke-dasharray:none;stroke-opacity:1"
           d="M 79.218133,182.14245 C 61.151897,177.29173 44.117836,160.08716 39.120536,149.77827 40.641721,94.406307 64.87001,53.246187 103.2196,54.197543 c 16.07702,0.39883 30.90551,15.349526 34.60318,31.608796 10.597,4.705898 22.77915,12.092286 25.21923,22.947031 0,0 -18.45973,4.24378 -42.05751,10.07808 -20.88104,5.16263 -33.032228,-7.92457 -37.12612,-11.74994 -21.0068,23.36662 -14.214084,61.15508 -4.640247,75.06094"
           id="path4549-6"
           inkscape:connector-curvature="0"
           sodipodi:nodetypes="ccsccscc" />
        <circle
           style="fill:#000000;fill-opacity:1;stroke:#ffffff;stroke-width:4.80200005;stroke-linecap:round;stroke-linejoin:round;stroke-miterlimit:4;stroke-dasharray:none;stroke-opacity:1"
           id="path4566"
           cx="100.25817"
           cy="88.451637"
           r="8.9096422" />
        <ellipse
           id="path3713"
           cx="103.18751"
           cy="115.9494"
           rx="72.193451"
           ry="70.492554"
           style="fill:none;fill-opacity:0.01459853;stroke:#fafafa;stroke-width:7.16499996;stroke-miterlimit:4;stroke-dasharray:none;stroke-opacity:1" />
        <path
           style="fill:none;fill-opacity:1;stroke:#fafafa;stroke-width:4.80200005;stroke-linecap:butt;stroke-linejoin:miter;stroke-miterlimit:4;stroke-dasharray:none;stroke-opacity:1"
           d="m 163.04201,108.75337 c 0,0 -17.5833,1.96055 -23.56879,11.16478 -5.6881,8.74692 -3.39328,19.56051 0.87173,28.8317 2.48362,5.39881 8.77998,15.53118 11.4125,19.17127"
           id="path4549-7"
           inkscape:connector-curvature="0"
           sodipodi:nodetypes="cssc" />
        <path
           style="fill:none;fill-opacity:1;stroke:none;stroke-width:6.97322845;stroke-linecap:round;stroke-linejoin:round;stroke-miterlimit:4;stroke-dasharray:none;stroke-opacity:1"
           d="m 566.50326,606.58633 c -25.05952,-40.42718 -34.67731,-61.02042 -40.31005,-86.31034 -2.22645,-9.99635 -2.61831,-28.67283 -0.78687,-37.50332 3.45951,-16.68046 10.81939,-28.74921 23.08322,-37.85191 12.57882,-9.33648 23.72383,-13.76317 50.49097,-20.05454 11.5,-2.70297 21.56184,-5.26384 22.35965,-5.69081 2.19202,-1.17313 4.22558,-5.00583 4.22858,-7.96969 10e-4,-1.45294 -0.83763,-5.31008 -1.86467,-8.57143 -9.47646,-30.09247 -36.16177,-55.73898 -82.17477,-78.97589 l -12.25639,-6.18957 -3.30579,-10.02499 c -8.4108,-25.50628 -26.2818,-53.50151 -45.80195,-71.74956 -23.26391,-21.74782 -48.14013,-34.57852 -75.61167,-38.99913 -8.43311,-1.35702 -28.70744,-1.54548 -39.72076,-0.36923 -70.3097,7.50931 -129.38207,52.03363 -170.136,128.23579 -25.07653,46.88837 -42.40771,104.8806 -50.89632,170.30521 -0.99024,7.63216 -1.82501,14.22144 -1.85503,14.64286 -0.25097,3.52214 -6.49118,-23.57752 -8.5409,-37.09093 -1.95733,-12.90428 -2.70224,-41.54109 -1.44198,-55.43459 5.36247,-59.1178 30.50754,-112.58543 72.86964,-154.94753 19.90569,-19.9057 41.97607,-35.9134 66.41057,-48.16776 93.9953,-47.14041 207.2296,-34.20276 287.37679,32.8344 45.80648,38.31372 77.10796,92.61651 86.87616,150.71548 4.66995,27.77578 4.40971,58.98237 -0.71777,86.07143 -4.62481,24.4334 -14.2501,51.53303 -25.70681,72.37644 -11.63804,21.17334 -23.2125,36.96674 -41.0968,56.07676 l -4.90288,5.23891 z"
           id="path4589"
           inkscape:connector-curvature="0"
           transform="scale(0.26458333)" />
        <path
           style="fill:none;fill-opacity:1;stroke:none;stroke-width:6.97322845;stroke-linecap:round;stroke-linejoin:round;stroke-miterlimit:4;stroke-dasharray:none;stroke-opacity:1"
           d="m 566.50326,606.58633 c -25.05952,-40.42718 -34.67731,-61.02042 -40.31005,-86.31034 -2.22645,-9.99635 -2.61831,-28.67283 -0.78687,-37.50332 3.45951,-16.68046 10.81939,-28.74921 23.08322,-37.85191 12.57882,-9.33648 23.72383,-13.76317 50.49097,-20.05454 11.5,-2.70297 21.56184,-5.26384 22.35965,-5.69081 2.19202,-1.17313 4.22558,-5.00583 4.22858,-7.96969 10e-4,-1.45294 -0.83763,-5.31008 -1.86467,-8.57143 -9.47646,-30.09247 -36.16177,-55.73898 -82.17477,-78.97589 l -12.25639,-6.18957 -3.30579,-10.02499 c -8.4108,-25.50628 -26.2818,-53.50151 -45.80195,-71.74956 -23.26391,-21.74782 -48.14013,-34.57852 -75.61167,-38.99913 -8.43311,-1.35702 -28.70744,-1.54548 -39.72076,-0.36923 -70.3097,7.50931 -129.38207,52.03363 -170.136,128.23579 -25.07653,46.88837 -42.40771,104.8806 -50.89632,170.30521 -0.99024,7.63216 -1.82501,14.22144 -1.85503,14.64286 -0.25097,3.52214 -6.49118,-23.57752 -8.5409,-37.09093 -1.95733,-12.90428 -2.70224,-41.54109 -1.44198,-55.43459 5.36247,-59.1178 30.50754,-112.58543 72.86964,-154.94753 19.90569,-19.9057 41.97607,-35.9134 66.41057,-48.16776 93.9953,-47.14041 207.2296,-34.20276 287.37679,32.8344 45.80648,38.31372 77.10796,92.61651 86.87616,150.71548 4.66995,27.77578 4.40971,58.98237 -0.71777,86.07143 -4.62481,24.4334 -14.2501,51.53303 -25.70681,72.37644 -11.63804,21.17334 -23.2125,36.96674 -41.0968,56.07676 l -4.90288,5.23891 z"
           id="path4591"
           inkscape:connector-curvature="0"
           transform="scale(0.26458333)" />
        <rect
           style="fill:#ab5e5e;fill-opacity:1;stroke:none;stroke-width:2.58299994;stroke-linecap:round;stroke-linejoin:round;stroke-miterlimit:4;stroke-dasharray:none;stroke-opacity:1"
           id="rect4595"
           width="0.8224194"
           height="0.20560485"
           x="175.38094"
           y="51.713394" />
      </g>
    </g>
  </g>
</svg>
